<svg version="1.1" id="Layer_1" xmlns="http://www.w3.org/2000/svg" xmlns:xlink="http://www.w3.org/1999/xlink" x="0px" y="0px"
	 width="100%" viewBox="0 0 279 274" enable-background="new 0 0 279 274" xml:space="preserve">
<path fill="none" opacity="1.000000" stroke="none" 
	d="
M170.000000,275.000000 
	C113.333336,275.000000 57.166668,275.000000 1.000000,275.000000 
	C1.000000,183.666672 1.000000,92.333336 1.000000,1.000000 
	C94.000000,1.000000 187.000000,1.000000 280.000000,1.000000 
	C280.000000,92.333336 280.000000,183.666672 280.000000,275.000000 
	C243.500000,275.000000 207.000000,275.000000 170.000000,275.000000 
M254.093475,124.368851 
	C250.571335,121.275719 246.555145,120.670387 241.967560,121.283386 
	C240.059479,121.538353 237.358246,120.842072 236.014999,119.545288 
	C225.946289,109.824867 216.182907,99.789017 206.184433,89.994293 
	C204.067764,87.920746 203.400360,86.127480 204.004730,83.063484 
	C206.026001,72.816231 198.224762,65.668175 187.897629,67.611046 
	C186.180878,67.934029 183.608795,67.171524 182.356506,65.957176 
	C171.949799,55.865803 161.702805,45.606445 151.588089,35.221996 
	C150.497391,34.102211 149.918060,31.753531 150.192871,30.163523 
	C151.268051,23.942938 149.605865,18.811449 144.937454,15.604620 
	C140.477585,12.541050 134.905899,12.500509 130.364212,15.498590 
	C125.683571,18.588402 123.972176,23.746767 124.936172,29.998652 
	C125.205887,31.747843 124.573051,34.281776 123.380234,35.509258 
	C113.394684,45.785076 103.260262,55.921432 92.941566,65.861954 
	C91.603661,67.150826 88.810722,67.871597 86.947357,67.516060 
	C76.731125,65.566734 68.862823,73.536667 70.908394,83.822868 
	C71.242455,85.502647 70.665909,88.048233 69.518150,89.230614 
	C59.537605,99.512184 49.407803,109.653938 39.096169,119.602798 
	C37.762104,120.889923 35.044968,121.542587 33.131783,121.283470 
	C26.913280,120.441269 21.844076,122.203354 18.711758,126.999039 
	C16.058893,131.060654 16.119476,137.130508 18.853565,141.207977 
	C22.030838,145.946396 26.975283,147.585602 33.344494,146.655502 
	C35.099617,146.399216 37.616936,147.083450 38.862186,148.288925 
	C49.157650,158.255447 59.202328,168.480453 69.411812,178.536957 
	C71.235947,180.333755 71.756599,181.791077 71.086891,184.529770 
	C68.625633,194.594894 77.097755,202.713409 87.167213,200.603775 
	C88.873390,200.246307 91.485100,200.879120 92.705856,202.059921 
	C103.125252,212.138199 113.376968,222.393127 123.501205,232.768570 
	C124.614281,233.909256 125.313210,236.280487 125.000580,237.839661 
	C123.792786,243.863327 125.183647,248.778214 130.184494,252.410751 
	C134.408859,255.479294 140.457245,255.449142 144.801102,252.582489 
	C149.618607,249.403244 151.340424,244.174011 150.074799,237.613708 
	C149.814606,236.264999 150.117035,234.226013 150.998428,233.327515 
	C161.500305,222.621674 172.121887,212.031601 182.846313,201.548508 
	C183.813293,200.603287 185.824905,200.017746 187.161270,200.270462 
	C198.856033,202.482071 205.827057,195.660553 204.017899,183.841797 
	C203.772125,182.236237 204.509872,179.913040 205.642776,178.752182 
	C215.767593,168.377609 226.026062,158.130386 236.424026,148.029785 
	C237.569778,146.916809 239.932114,146.325668 241.566177,146.573593 
	C248.321564,147.598587 253.370056,145.874847 256.414795,140.975204 
	C259.674866,135.729050 259.103027,130.593658 254.093475,124.368851 
z"/>
<path fill="#7FA23B" opacity="1.000000" stroke="none" 
	d="
M254.358322,124.626640 
	C259.103027,130.593658 259.674866,135.729050 256.414795,140.975204 
	C253.370056,145.874847 248.321564,147.598587 241.566177,146.573593 
	C239.932114,146.325668 237.569778,146.916809 236.424026,148.029785 
	C226.026062,158.130386 215.767593,168.377609 205.642776,178.752182 
	C204.509872,179.913040 203.772125,182.236237 204.017899,183.841797 
	C205.827057,195.660553 198.856033,202.482071 187.161270,200.270462 
	C185.824905,200.017746 183.813293,200.603287 182.846313,201.548508 
	C172.121887,212.031601 161.500305,222.621674 150.998428,233.327515 
	C150.117035,234.226013 149.814606,236.264999 150.074799,237.613708 
	C151.340424,244.174011 149.618607,249.403244 144.801102,252.582489 
	C140.457245,255.449142 134.408859,255.479294 130.184494,252.410751 
	C125.183647,248.778214 123.792786,243.863327 125.000580,237.839661 
	C125.313210,236.280487 124.614281,233.909256 123.501205,232.768570 
	C113.376968,222.393127 103.125252,212.138199 92.705856,202.059921 
	C91.485100,200.879120 88.873390,200.246307 87.167213,200.603775 
	C77.097755,202.713409 68.625633,194.594894 71.086891,184.529770 
	C71.756599,181.791077 71.235947,180.333755 69.411812,178.536957 
	C59.202328,168.480453 49.157650,158.255447 38.862186,148.288925 
	C37.616936,147.083450 35.099617,146.399216 33.344494,146.655502 
	C26.975283,147.585602 22.030838,145.946396 18.853565,141.207977 
	C16.119476,137.130508 16.058893,131.060654 18.711758,126.999039 
	C21.844076,122.203354 26.913280,120.441269 33.131783,121.283470 
	C35.044968,121.542587 37.762104,120.889923 39.096169,119.602798 
	C49.407803,109.653938 59.537605,99.512184 69.518150,89.230614 
	C70.665909,88.048233 71.242455,85.502647 70.908394,83.822868 
	C68.862823,73.536667 76.731125,65.566734 86.947357,67.516060 
	C88.810722,67.871597 91.603661,67.150826 92.941566,65.861954 
	C103.260262,55.921432 113.394684,45.785076 123.380234,35.509258 
	C124.573051,34.281776 125.205887,31.747843 124.936172,29.998652 
	C123.972176,23.746767 125.683571,18.588402 130.364212,15.498590 
	C134.905899,12.500509 140.477585,12.541050 144.937454,15.604620 
	C149.605865,18.811449 151.268051,23.942938 150.192871,30.163523 
	C149.918060,31.753531 150.497391,34.102211 151.588089,35.221996 
	C161.702805,45.606445 171.949799,55.865803 182.356506,65.957176 
	C183.608795,67.171524 186.180878,67.934029 187.897629,67.611046 
	C198.224762,65.668175 206.026001,72.816231 204.004730,83.063484 
	C203.400360,86.127480 204.067764,87.920746 206.184433,89.994293 
	C216.182907,99.789017 225.946289,109.824867 236.014999,119.545288 
	C237.358246,120.842072 240.059479,121.538353 241.967560,121.283386 
	C246.555145,120.670387 250.571335,121.275719 254.358322,124.626640 
M100.124619,68.610054 
	C99.536011,69.197754 98.802841,69.698776 98.388031,70.390663 
	C97.441193,71.969948 96.650261,73.642700 95.795998,75.277481 
	C97.525696,75.828346 99.240013,76.788506 100.987938,76.854172 
	C106.469826,77.060104 111.968773,76.794022 117.452621,76.972008 
	C121.722275,77.110580 125.662575,77.283241 127.483749,72.138176 
	C127.962631,70.785263 129.708527,69.519585 131.161194,68.950294 
	C133.906342,67.874451 134.212463,65.965515 134.173370,63.453869 
	C134.067215,56.635040 134.217087,49.811764 134.072510,42.994347 
	C134.041107,41.513489 133.203262,40.049736 132.736862,38.578098 
	C131.209747,39.251869 129.328751,39.563725 128.211288,40.656433 
	C118.935349,49.726963 109.800423,58.941715 100.124619,68.610054 
M149.278915,74.532692 
	C150.720535,75.330994 152.141159,76.771255 153.607330,76.819229 
	C160.923370,77.058617 168.253006,77.011086 175.573563,76.858437 
	C176.817642,76.832497 178.744873,76.066063 179.080750,75.165787 
	C179.434952,74.216408 178.589355,72.372917 177.704468,71.475853 
	C167.302261,60.930477 156.821945,50.461315 146.263733,40.072159 
	C145.367386,39.190155 143.764206,39.026485 142.489395,38.529106 
	C142.027954,39.841091 141.203369,41.143398 141.168091,42.466743 
	C141.017334,48.122086 141.258041,53.789551 141.047134,59.441071 
	C140.875320,64.045708 140.858597,68.263008 146.036942,70.491158 
	C147.255081,71.015320 147.973801,72.700157 149.278915,74.532692 
M126.089424,225.431396 
	C126.797066,226.134003 127.409050,226.990280 128.234299,227.503952 
	C129.540359,228.316925 130.989273,228.900391 132.377716,229.580978 
	C132.965607,228.023514 133.978394,226.488068 134.060455,224.904404 
	C134.292404,220.428940 134.094498,215.933014 134.155579,211.446381 
	C134.232864,205.769089 133.559906,201.437881 128.729309,196.503540 
	C124.009224,191.682114 119.847313,191.417709 114.550041,191.370255 
	C109.730560,191.327057 104.905502,191.237976 100.093491,191.431870 
	C98.638908,191.490463 97.219635,192.425491 95.784187,192.959061 
	C96.429703,194.335846 96.763451,196.019470 97.769348,197.041595 
	C106.978661,206.399246 116.304718,215.642014 126.089424,225.431396 
M219.485077,130.616959 
	C223.151550,130.605988 226.824005,130.706085 230.480392,130.508453 
	C231.432602,130.456970 232.793442,129.667526 233.125778,128.867661 
	C233.434769,128.123993 232.919952,126.620346 232.260117,125.954170 
	C221.471390,115.061546 210.619293,104.231316 199.710831,93.458549 
	C199.003525,92.760033 197.375931,92.048248 196.789429,92.391144 
	C195.879929,92.922890 195.031937,94.333305 194.975616,95.413834 
	C194.758957,99.569717 194.838104,103.742714 194.861343,107.909035 
	C194.898819,114.629791 193.839493,120.980568 201.119537,126.153076 
	C204.811340,128.776123 207.507797,130.989929 212.001587,130.643707 
	C214.155380,130.477783 216.332611,130.616180 219.485077,130.616959 
M232.927277,141.505341 
	C234.360275,138.467270 232.677719,137.512314 230.064911,137.492081 
	C222.248749,137.431519 214.431427,137.446976 206.615555,137.528961 
	C205.722748,137.538330 204.607788,137.921295 203.981277,138.528656 
	C194.872223,147.359131 194.886490,147.375336 194.868668,160.985733 
	C194.864090,164.478333 194.713867,167.981598 194.948822,171.458466 
	C195.047684,172.921265 195.972198,174.328293 196.521378,175.760666 
	C197.911453,175.093018 199.605286,174.733780 200.644714,173.710083 
	C211.308060,163.208344 221.865311,152.598892 232.927277,141.505341 
M188.021683,96.000015 
	C187.442200,94.756142 186.862717,93.512268 186.283249,92.268387 
	C185.027756,92.865532 183.494492,93.180923 182.559311,94.102943 
	C172.000748,104.513107 161.512772,114.995415 151.084686,125.536339 
	C150.296356,126.333199 149.487473,127.975281 149.809036,128.772141 
	C150.162704,129.648605 151.803757,130.483673 152.900375,130.505371 
	C160.561829,130.656906 168.228027,130.635452 175.891312,130.548447 
	C176.939301,130.536560 178.274933,130.147308 178.978790,129.438004 
	C188.054398,120.292160 188.031754,120.269463 188.031326,106.401665 
	C188.031235,103.235924 188.028854,100.070183 188.021683,96.000015 
M51.083462,117.584297 
	C48.488235,120.171898 45.812405,122.685959 43.345016,125.390205 
	C42.566090,126.243896 41.645893,128.098145 42.019863,128.630066 
	C42.715298,129.619202 44.297745,130.467560 45.539173,130.508011 
	C51.530823,130.703217 57.534962,130.495422 63.528557,130.657227 
	C67.825119,130.773239 71.763786,130.813843 73.723427,125.806732 
	C74.249641,124.462173 76.373940,123.828629 77.398483,122.570511 
	C78.522842,121.189827 79.926430,119.491821 79.988739,117.884781 
	C80.266121,110.731621 80.202209,103.559158 80.024261,96.399574 
	C79.989197,94.988708 78.906219,93.603889 78.306526,92.207054 
	C77.063332,92.850388 75.572075,93.240517 74.616135,94.177063 
	C66.881676,101.754593 59.247723,109.434731 51.083462,117.584297 
M141.123749,226.793900 
	C141.814453,230.701889 143.659515,230.707535 146.145355,228.233719 
	C156.754044,217.676300 167.367676,207.123581 177.902008,196.492340 
	C178.703949,195.683014 179.601074,193.731873 179.233704,193.258514 
	C178.479233,192.286377 176.912979,191.485474 175.653091,191.443268 
	C170.004898,191.254013 164.340271,191.524384 158.694550,191.301117 
	C153.897247,191.111374 149.441895,190.972870 147.145844,196.464539 
	C146.640762,197.672607 144.725967,198.215271 143.819214,199.350906 
	C142.716461,200.732040 141.286606,202.390030 141.227325,203.974274 
	C140.953857,211.281509 141.107925,218.604736 141.123749,226.793900 
M76.753410,145.011520 
	C75.197266,143.319611 73.766693,141.483276 72.042747,139.984360 
	C70.802887,138.906326 69.193901,137.612167 67.711128,137.562546 
	C60.392647,137.317566 53.059677,137.376511 45.736179,137.532730 
	C44.462662,137.559906 42.520813,138.283920 42.142891,139.202515 
	C41.769741,140.109497 42.663555,141.991257 43.557369,142.896698 
	C53.967731,153.442551 64.461937,163.906189 75.012573,174.311874 
	C75.834663,175.122681 77.804520,176.043839 78.267738,175.678787 
	C79.227852,174.922180 80.004356,173.344162 80.030106,172.086960 
	C80.183517,164.596878 80.239029,157.097168 79.977219,149.612930 
	C79.927307,148.186401 78.311234,146.814667 76.753410,145.011520 
M177.983032,169.525452 
	C179.518738,171.046280 180.944458,172.706482 182.630463,174.036819 
	C183.678909,174.864136 185.121414,175.192062 186.387054,175.744125 
	C186.931870,174.479691 187.909592,173.227997 187.947220,171.948654 
	C188.118118,166.134354 187.872604,160.306961 188.074738,154.494659 
	C188.229568,150.042191 188.326370,145.971771 183.175980,143.898422 
	C181.826828,143.355301 181.176346,141.274445 179.923553,140.240952 
	C178.548096,139.106277 176.876221,137.641129 175.283691,137.578064 
	C168.145599,137.295425 160.987411,137.366089 153.842361,137.544434 
	C152.416794,137.580032 151.016907,138.644562 149.605164,139.234634 
	C150.316772,140.581528 150.759491,142.192642 151.782379,143.233688 
	C160.287918,151.890182 168.900497,160.441513 177.983032,169.525452 
M122.632057,130.570572 
	C126.390762,129.940506 126.810379,128.134979 124.240807,125.570297 
	C113.527840,114.877670 102.790932,104.208580 91.976967,93.618515 
	C91.188011,92.845886 89.459473,92.179947 88.632271,92.537880 
	C87.797516,92.899101 87.128510,94.587852 87.100800,95.712593 
	C86.949234,101.864113 87.118553,108.023422 86.974426,114.175293 
	C86.878975,118.249611 86.637840,122.048065 91.577042,123.880272 
	C93.061478,124.430931 93.822708,126.701134 95.194977,127.849281 
	C96.551834,128.984543 98.235100,130.413177 99.821991,130.473068 
	C107.131058,130.748947 114.456482,130.591537 122.632057,130.570572 
M93.354523,142.738602 
	C91.797707,145.653259 86.668335,145.090546 86.925323,150.048050 
	C87.303665,157.346420 86.943855,164.680618 87.093880,171.995560 
	C87.119736,173.256058 88.115715,174.496689 88.663574,175.746490 
	C89.932190,175.186615 91.500053,174.930450 92.423645,174.020416 
	C102.966225,163.632599 113.438660,153.172775 123.830551,142.634293 
	C124.708130,141.744324 124.870613,140.149231 125.365311,138.881714 
	C124.047821,138.412415 122.738976,137.568222 121.411377,137.537628 
	C115.094543,137.392075 108.755623,137.748047 102.458488,137.366089 
	C98.285736,137.112976 95.402344,138.177979 93.354523,142.738602 
M128.654678,147.929047 
	C118.282112,158.273514 107.882820,168.591537 97.582932,179.007858 
	C96.665688,179.935471 96.394592,181.501999 95.823395,182.771790 
	C97.095573,183.297501 98.359161,184.252335 99.641350,184.278015 
	C106.963928,184.424576 114.291656,184.401688 121.615715,184.299164 
	C122.828262,184.282196 124.319237,183.913773 125.185158,183.147125 
	C127.855049,180.783279 130.377701,178.231171 132.754257,175.570602 
	C133.530563,174.701538 134.044464,173.281067 134.062531,172.103333 
	C134.177444,164.613113 134.187393,157.119415 134.091949,149.628632 
	C134.041916,145.702042 132.362610,144.740829 128.654678,147.929047 
M141.106201,117.113327 
	C141.664841,118.694908 142.223465,120.276497 142.782104,121.858086 
	C144.155457,121.141533 145.804321,120.704605 146.859390,119.665024 
	C157.053101,109.620934 167.178543,99.506622 177.220825,89.311241 
	C178.227966,88.288742 178.557709,86.599037 179.201828,85.218987 
	C177.906769,84.710953 176.619431,83.787903 175.315369,83.763657 
	C167.995361,83.627525 160.670898,83.671593 153.349106,83.754456 
	C152.270721,83.766655 150.807465,83.965828 150.184631,84.666908 
	C144.861252,90.658951 138.592865,96.157616 140.976074,105.740929 
	C141.794556,109.032211 141.105377,112.698425 141.106201,117.113327 
M114.458939,83.696587 
	C109.309036,83.704262 104.155823,83.616837 99.011879,83.795746 
	C97.915657,83.833870 96.496040,84.603737 95.908226,85.489571 
	C95.552490,86.025688 96.229355,87.711212 96.919365,88.407578 
	C107.675606,99.262901 118.491005,110.060036 129.370300,120.791969 
	C130.062149,121.474434 131.742981,122.083405 132.339081,121.715225 
	C133.224060,121.168633 133.996796,119.734818 134.037949,118.649101 
	C134.220352,113.838165 134.169464,109.016205 134.117645,104.199142 
	C134.055817,98.453766 134.568115,93.479996 128.540466,88.721069 
	C124.115593,85.227554 120.661240,83.268761 114.458939,83.696587 
M141.116714,161.493362 
	C141.115799,164.990387 140.924728,168.502853 141.206436,171.976944 
	C141.320999,173.389679 142.227234,174.921097 143.187912,176.043655 
	C145.094803,178.271896 147.236984,180.310364 149.390457,182.310410 
	C150.279160,183.135773 151.436417,184.212341 152.490341,184.233398 
	C160.479935,184.393127 168.477859,184.460495 176.465256,184.252121 
	C179.890656,184.162781 180.583084,181.981430 178.267685,179.630493 
	C167.518066,168.715927 156.651566,157.915970 145.748688,147.154205 
	C145.073166,146.487427 143.531799,146.014816 142.750092,146.331818 
	C141.977295,146.645203 141.254532,148.056030 141.209366,149.018280 
	C141.029938,152.840210 141.124146,156.674988 141.116714,161.493362 
M135.251251,128.404495 
	C134.026169,130.699692 131.962891,132.964539 131.878357,135.301010 
	C131.824326,136.793869 134.501495,139.300674 136.311172,139.688904 
	C138.127029,140.078476 141.006607,138.936279 142.264023,137.472427 
	C143.369339,136.185669 143.808563,132.669250 142.882751,131.660751 
	C141.252884,129.885330 138.357681,129.271500 135.251251,128.404495 
M131.399094,187.575821 
	C132.675568,192.941376 136.298294,195.655396 139.831146,193.304855 
	C141.658936,192.088791 143.492737,189.031006 143.242874,187.070526 
	C142.999634,185.161987 140.368484,182.684204 138.308014,182.076614 
	C134.836365,181.052887 132.416367,183.291092 131.399094,187.575821 
M131.491898,81.205528 
	C132.457718,84.723587 134.883209,86.976616 138.343842,85.964233 
	C140.400970,85.362434 143.024567,82.867378 143.266144,80.954811 
	C143.512970,79.000671 141.665756,75.949005 139.835617,74.742851 
	C136.270401,72.393173 132.724976,75.054306 131.491898,81.205528 
M136.042938,20.510576 
	C132.600403,21.699604 130.844879,24.067930 131.642380,27.699705 
	C132.381424,31.065271 134.825851,32.734821 138.208023,32.380997 
	C141.613281,32.024757 143.665100,29.824387 143.582565,26.399687 
	C143.481247,22.195297 140.938339,20.242195 136.042938,20.510576 
M187.807968,182.959366 
	C185.237122,185.216370 184.370239,188.157547 186.364609,190.841537 
	C187.534561,192.416061 190.280746,193.988251 191.988419,193.687943 
	C193.964569,193.340408 196.412628,191.272156 197.186539,189.357162 
	C199.139709,184.524185 194.641830,181.149094 187.807968,182.959366 
M185.451309,81.215233 
	C187.411667,82.880035 189.153122,85.222534 191.415207,85.953239 
	C192.753235,86.385445 195.733200,84.684341 196.489349,83.190590 
	C197.354202,81.482147 197.325485,78.429039 196.292480,76.902580 
	C195.254593,75.368904 191.839706,73.747108 190.646652,74.381920 
	C188.426178,75.563400 187.062469,78.355103 185.451309,81.215233 
M250.548889,130.856827 
	C248.540176,127.954498 245.554565,126.911980 242.773987,128.741821 
	C241.048859,129.877075 239.498001,132.670578 239.494186,134.722794 
	C239.487335,138.404312 242.248428,140.253693 245.971130,140.004959 
	C249.967148,139.737961 251.707184,136.627106 250.548889,130.856827 
M197.260712,132.219055 
	C195.447021,128.030075 192.251846,126.810715 188.375397,128.903641 
	C185.108994,130.667206 184.239960,134.089218 186.404785,136.987274 
	C187.622025,138.616791 190.566650,139.888672 192.627762,139.750549 
	C196.308685,139.503860 197.822174,136.624527 197.260712,132.219055 
M142.146896,245.633926 
	C144.575134,240.631729 143.320847,236.275101 138.898941,236.020966 
	C136.711853,235.895294 133.539810,237.321381 132.415070,239.073517 
	C131.460800,240.560074 132.079987,244.057251 133.296326,245.716766 
	C135.458160,248.666275 138.691895,248.591934 142.146896,245.633926 
M87.110603,75.212532 
	C82.388367,73.356567 78.515564,74.480003 78.089256,78.455345 
	C77.853584,80.653046 79.017303,84.083923 80.683319,85.098808 
	C82.360367,86.120399 86.086731,85.675232 87.767525,84.381638 
	C90.863586,81.998840 90.453049,78.581169 87.110603,75.212532 
M82.723740,193.936111 
	C88.215019,193.280228 91.334961,189.861832 89.286896,186.055527 
	C88.255760,184.139191 85.389801,182.217010 83.306068,182.164017 
	C81.533951,182.118973 78.851631,184.397934 78.067696,186.273758 
	C76.651161,189.663269 78.575203,192.325394 82.723740,193.936111 
M86.527298,128.674118 
	C82.397469,127.175369 78.807236,128.088196 78.083626,132.564468 
	C77.741394,134.681549 79.489548,138.215027 81.340302,139.276459 
	C82.899765,140.170837 86.677231,139.155716 88.230591,137.679031 
	C91.111229,134.940552 90.151123,131.641403 86.527298,128.674118 
M25.831591,138.658722 
	C28.634449,140.685638 31.842964,140.939819 33.824402,138.223007 
	C35.101086,136.472504 35.630875,133.056137 34.760937,131.198730 
	C33.998375,129.570572 30.781160,128.176346 28.713425,128.261551 
	C24.084162,128.452301 22.659176,133.021591 25.831591,138.658722 
z"/>
<path fill="#030402" opacity="1.000000" stroke="none" 
	d="
M100.373741,68.361465 
	C109.800423,58.941715 118.935349,49.726963 128.211288,40.656433 
	C129.328751,39.563725 131.209747,39.251869 132.736862,38.578102 
	C133.203262,40.049736 134.041107,41.513489 134.072510,42.994347 
	C134.217087,49.811764 134.067215,56.635040 134.173370,63.453869 
	C134.212463,65.965515 133.906342,67.874451 131.161194,68.950294 
	C129.708527,69.519585 127.962631,70.785263 127.483749,72.138176 
	C125.662575,77.283241 121.722275,77.110580 117.452621,76.972008 
	C111.968773,76.794022 106.469826,77.060104 100.987938,76.854172 
	C99.240013,76.788506 97.525696,75.828346 95.795998,75.277481 
	C96.650261,73.642700 97.441193,71.969948 98.388031,70.390663 
	C98.802841,69.698776 99.536011,69.197754 100.373741,68.361465 
z"/>
<path fill="#040502" opacity="1.000000" stroke="none" 
	d="
M149.100601,74.191864 
	C147.973801,72.700157 147.255081,71.015320 146.036942,70.491158 
	C140.858597,68.263008 140.875320,64.045708 141.047134,59.441071 
	C141.258041,53.789551 141.017334,48.122086 141.168091,42.466743 
	C141.203369,41.143398 142.027954,39.841091 142.489395,38.529106 
	C143.764206,39.026485 145.367386,39.190155 146.263733,40.072159 
	C156.821945,50.461315 167.302261,60.930477 177.704468,71.475853 
	C178.589355,72.372917 179.434952,74.216408 179.080750,75.165787 
	C178.744873,76.066063 176.817642,76.832497 175.573563,76.858437 
	C168.253006,77.011086 160.923370,77.058617 153.607330,76.819229 
	C152.141159,76.771255 150.720535,75.330994 149.100601,74.191864 
z"/>
<path fill="#050602" opacity="1.000000" stroke="none" 
	d="
M125.843063,225.174850 
	C116.304718,215.642014 106.978661,206.399246 97.769348,197.041595 
	C96.763451,196.019470 96.429703,194.335846 95.784187,192.959061 
	C97.219635,192.425491 98.638908,191.490463 100.093491,191.431870 
	C104.905502,191.237976 109.730560,191.327057 114.550041,191.370255 
	C119.847313,191.417709 124.009224,191.682114 128.729309,196.503540 
	C133.559906,201.437881 134.232864,205.769089 134.155579,211.446381 
	C134.094498,215.933014 134.292404,220.428940 134.060455,224.904404 
	C133.978394,226.488068 132.965607,228.023514 132.377716,229.580978 
	C130.989273,228.900391 129.540359,228.316925 128.234299,227.503952 
	C127.409050,226.990280 126.797066,226.134003 125.843063,225.174850 
z"/>
<path fill="#040602" opacity="1.000000" stroke="none" 
	d="
M218.992157,130.616852 
	C216.332611,130.616180 214.155380,130.477783 212.001587,130.643707 
	C207.507797,130.989929 204.811340,128.776123 201.119537,126.153076 
	C193.839493,120.980568 194.898819,114.629791 194.861343,107.909035 
	C194.838104,103.742714 194.758957,99.569717 194.975616,95.413834 
	C195.031937,94.333305 195.879929,92.922890 196.789429,92.391144 
	C197.375931,92.048248 199.003525,92.760033 199.710831,93.458549 
	C210.619293,104.231316 221.471390,115.061546 232.260117,125.954170 
	C232.919952,126.620346 233.434769,128.123993 233.125778,128.867661 
	C232.793442,129.667526 231.432602,130.456970 230.480392,130.508453 
	C226.824005,130.706085 223.151550,130.605988 218.992157,130.616852 
z"/>
<path fill="#040502" opacity="1.000000" stroke="none" 
	d="
M232.689728,141.762421 
	C221.865311,152.598892 211.308060,163.208344 200.644714,173.710083 
	C199.605286,174.733780 197.911453,175.093018 196.521378,175.760666 
	C195.972198,174.328293 195.047684,172.921265 194.948822,171.458466 
	C194.713867,167.981598 194.864090,164.478333 194.868668,160.985733 
	C194.886490,147.375336 194.872223,147.359131 203.981277,138.528656 
	C204.607788,137.921295 205.722748,137.538330 206.615555,137.528961 
	C214.431427,137.446976 222.248749,137.431519 230.064911,137.492081 
	C232.677719,137.512314 234.360275,138.467270 232.689728,141.762421 
z"/>
<path fill="#050602" opacity="1.000000" stroke="none" 
	d="
M188.024597,96.452225 
	C188.028854,100.070183 188.031235,103.235924 188.031326,106.401665 
	C188.031754,120.269463 188.054398,120.292160 178.978790,129.438004 
	C178.274933,130.147308 176.939301,130.536560 175.891312,130.548447 
	C168.228027,130.635452 160.561829,130.656906 152.900375,130.505371 
	C151.803757,130.483673 150.162704,129.648605 149.809036,128.772141 
	C149.487473,127.975281 150.296356,126.333199 151.084686,125.536339 
	C161.512772,114.995415 172.000748,104.513107 182.559311,94.102943 
	C183.494492,93.180923 185.027756,92.865532 186.283249,92.268387 
	C186.862717,93.512268 187.442200,94.756142 188.024597,96.452225 
z"/>
<path fill="#050602" opacity="1.000000" stroke="none" 
	d="
M51.333290,117.333939 
	C59.247723,109.434731 66.881676,101.754593 74.616135,94.177063 
	C75.572075,93.240517 77.063332,92.850388 78.306526,92.207054 
	C78.906219,93.603889 79.989197,94.988708 80.024261,96.399574 
	C80.202209,103.559158 80.266121,110.731621 79.988739,117.884781 
	C79.926430,119.491821 78.522842,121.189827 77.398483,122.570511 
	C76.373940,123.828629 74.249641,124.462173 73.723427,125.806732 
	C71.763786,130.813843 67.825119,130.773239 63.528557,130.657227 
	C57.534962,130.495422 51.530823,130.703217 45.539173,130.508011 
	C44.297745,130.467560 42.715298,129.619202 42.019863,128.630066 
	C41.645893,128.098145 42.566090,126.243896 43.345016,125.390205 
	C45.812405,122.685959 48.488235,120.171898 51.333290,117.333939 
z"/>
<path fill="#050602" opacity="1.000000" stroke="none" 
	d="
M141.116226,226.358063 
	C141.107925,218.604736 140.953857,211.281509 141.227325,203.974274 
	C141.286606,202.390030 142.716461,200.732040 143.819214,199.350906 
	C144.725967,198.215271 146.640762,197.672607 147.145844,196.464539 
	C149.441895,190.972870 153.897247,191.111374 158.694550,191.301117 
	C164.340271,191.524384 170.004898,191.254013 175.653091,191.443268 
	C176.912979,191.485474 178.479233,192.286377 179.233704,193.258514 
	C179.601074,193.731873 178.703949,195.683014 177.902008,196.492340 
	C167.367676,207.123581 156.754044,217.676300 146.145355,228.233719 
	C143.659515,230.707535 141.814453,230.701889 141.116226,226.358063 
z"/>
<path fill="#040602" opacity="1.000000" stroke="none" 
	d="
M77.085587,145.214584 
	C78.311234,146.814667 79.927307,148.186401 79.977219,149.612930 
	C80.239029,157.097168 80.183517,164.596878 80.030106,172.086960 
	C80.004356,173.344162 79.227852,174.922180 78.267738,175.678787 
	C77.804520,176.043839 75.834663,175.122681 75.012573,174.311874 
	C64.461937,163.906189 53.967731,153.442551 43.557369,142.896698 
	C42.663555,141.991257 41.769741,140.109497 42.142891,139.202515 
	C42.520813,138.283920 44.462662,137.559906 45.736179,137.532730 
	C53.059677,137.376511 60.392647,137.317566 67.711128,137.562546 
	C69.193901,137.612167 70.802887,138.906326 72.042747,139.984360 
	C73.766693,141.483276 75.197266,143.319611 77.085587,145.214584 
z"/>
<path fill="#040602" opacity="1.000000" stroke="none" 
	d="
M177.731903,169.275024 
	C168.900497,160.441513 160.287918,151.890182 151.782379,143.233688 
	C150.759491,142.192642 150.316772,140.581528 149.605164,139.234634 
	C151.016907,138.644562 152.416794,137.580032 153.842361,137.544434 
	C160.987411,137.366089 168.145599,137.295425 175.283691,137.578064 
	C176.876221,137.641129 178.548096,139.106277 179.923553,140.240952 
	C181.176346,141.274445 181.826828,143.355301 183.175980,143.898422 
	C188.326370,145.971771 188.229568,150.042191 188.074738,154.494659 
	C187.872604,160.306961 188.118118,166.134354 187.947220,171.948654 
	C187.909592,173.227997 186.931870,174.479691 186.387054,175.744125 
	C185.121414,175.192062 183.678909,174.864136 182.630463,174.036819 
	C180.944458,172.706482 179.518738,171.046280 177.731903,169.275024 
z"/>
<path fill="#040502" opacity="1.000000" stroke="none" 
	d="
M122.204048,130.580048 
	C114.456482,130.591537 107.131058,130.748947 99.821991,130.473068 
	C98.235100,130.413177 96.551834,128.984543 95.194977,127.849281 
	C93.822708,126.701134 93.061478,124.430931 91.577042,123.880272 
	C86.637840,122.048065 86.878975,118.249611 86.974426,114.175293 
	C87.118553,108.023422 86.949234,101.864113 87.100800,95.712593 
	C87.128510,94.587852 87.797516,92.899101 88.632271,92.537880 
	C89.459473,92.179947 91.188011,92.845886 91.976967,93.618515 
	C102.790932,104.208580 113.527840,114.877670 124.240807,125.570297 
	C126.810379,128.134979 126.390762,129.940506 122.204048,130.580048 
z"/>
<path fill="#040502" opacity="1.000000" stroke="none" 
	d="
M93.600662,142.444916 
	C95.402344,138.177979 98.285736,137.112976 102.458488,137.366089 
	C108.755623,137.748047 115.094543,137.392075 121.411377,137.537628 
	C122.738976,137.568222 124.047821,138.412415 125.365311,138.881714 
	C124.870613,140.149231 124.708130,141.744324 123.830551,142.634293 
	C113.438660,153.172775 102.966225,163.632599 92.423645,174.020416 
	C91.500053,174.930450 89.932190,175.186615 88.663574,175.746490 
	C88.115715,174.496689 87.119736,173.256058 87.093880,171.995560 
	C86.943855,164.680618 87.303665,157.346420 86.925323,150.048050 
	C86.668335,145.090546 91.797707,145.653259 93.600662,142.444916 
z"/>
<path fill="#020301" opacity="1.000000" stroke="none" 
	d="
M128.914703,147.655975 
	C132.362610,144.740829 134.041916,145.702042 134.091949,149.628632 
	C134.187393,157.119415 134.177444,164.613113 134.062531,172.103333 
	C134.044464,173.281067 133.530563,174.701538 132.754257,175.570602 
	C130.377701,178.231171 127.855049,180.783279 125.185158,183.147125 
	C124.319237,183.913773 122.828262,184.282196 121.615715,184.299164 
	C114.291656,184.401688 106.963928,184.424576 99.641350,184.278015 
	C98.359161,184.252335 97.095573,183.297501 95.823395,182.771790 
	C96.394592,181.501999 96.665688,179.935471 97.582932,179.007858 
	C107.882820,168.591537 118.282112,158.273514 128.914703,147.655975 
z"/>
<path fill="#030301" opacity="1.000000" stroke="none" 
	d="
M141.105576,116.653343 
	C141.105377,112.698425 141.794556,109.032211 140.976074,105.740929 
	C138.592865,96.157616 144.861252,90.658951 150.184631,84.666908 
	C150.807465,83.965828 152.270721,83.766655 153.349106,83.754456 
	C160.670898,83.671593 167.995361,83.627525 175.315369,83.763657 
	C176.619431,83.787903 177.906769,84.710953 179.201828,85.218979 
	C178.557709,86.599037 178.227966,88.288742 177.220825,89.311241 
	C167.178543,99.506622 157.053101,109.620934 146.859390,119.665024 
	C145.804321,120.704605 144.155457,121.141533 142.782104,121.858078 
	C142.223465,120.276497 141.664841,118.694908 141.105576,116.653343 
z"/>
<path fill="#020301" opacity="1.000000" stroke="none" 
	d="
M114.948868,83.696213 
	C120.661240,83.268761 124.115593,85.227554 128.540466,88.721069 
	C134.568115,93.479996 134.055817,98.453766 134.117645,104.199142 
	C134.169464,109.016205 134.220352,113.838165 134.037949,118.649101 
	C133.996796,119.734818 133.224060,121.168633 132.339081,121.715225 
	C131.742981,122.083405 130.062149,121.474434 129.370300,120.791969 
	C118.491005,110.060036 107.675606,99.262901 96.919365,88.407578 
	C96.229355,87.711212 95.552490,86.025688 95.908226,85.489571 
	C96.496040,84.603737 97.915657,83.833870 99.011879,83.795746 
	C104.155823,83.616837 109.309036,83.704262 114.948868,83.696213 
z"/>
<path fill="#020301" opacity="1.000000" stroke="none" 
	d="
M141.116852,160.999176 
	C141.124146,156.674988 141.029938,152.840210 141.209366,149.018280 
	C141.254532,148.056030 141.977295,146.645203 142.750092,146.331818 
	C143.531799,146.014816 145.073166,146.487427 145.748688,147.154205 
	C156.651566,157.915970 167.518066,168.715927 178.267685,179.630493 
	C180.583084,181.981430 179.890656,184.162781 176.465256,184.252121 
	C168.477859,184.460495 160.479935,184.393127 152.490341,184.233398 
	C151.436417,184.212341 150.279160,183.135773 149.390457,182.310410 
	C147.236984,180.310364 145.094803,178.271896 143.187912,176.043655 
	C142.227234,174.921097 141.320999,173.389679 141.206436,171.976944 
	C140.924728,168.502853 141.115799,164.990387 141.116852,160.999176 
z"/>
<path fill="#090B04" opacity="1.000000" stroke="none" 
	d="
M135.621780,128.287888 
	C138.357681,129.271500 141.252884,129.885330 142.882751,131.660751 
	C143.808563,132.669250 143.369339,136.185669 142.264023,137.472427 
	C141.006607,138.936279 138.127029,140.078476 136.311172,139.688904 
	C134.501495,139.300674 131.824326,136.793869 131.878357,135.301010 
	C131.962891,132.964539 134.026169,130.699692 135.621780,128.287888 
z"/>
<path fill="#090B04" opacity="1.000000" stroke="none" 
	d="
M131.443344,187.206573 
	C132.416367,183.291092 134.836365,181.052887 138.308014,182.076614 
	C140.368484,182.684204 142.999634,185.161987 143.242874,187.070526 
	C143.492737,189.031006 141.658936,192.088791 139.831146,193.304855 
	C136.298294,195.655396 132.675568,192.941376 131.443344,187.206573 
z"/>
<path fill="#080B04" opacity="1.000000" stroke="none" 
	d="
M131.448105,80.837784 
	C132.724976,75.054306 136.270401,72.393173 139.835617,74.742851 
	C141.665756,75.949005 143.512970,79.000671 143.266144,80.954811 
	C143.024567,82.867378 140.400970,85.362434 138.343842,85.964233 
	C134.883209,86.976616 132.457718,84.723587 131.448105,80.837784 
z"/>
<path fill="#080B04" opacity="1.000000" stroke="none" 
	d="
M136.409088,20.436157 
	C140.938339,20.242195 143.481247,22.195297 143.582565,26.399687 
	C143.665100,29.824387 141.613281,32.024757 138.208023,32.380997 
	C134.825851,32.734821 132.381424,31.065271 131.642380,27.699705 
	C130.844879,24.067930 132.600403,21.699604 136.409088,20.436157 
z"/>
<path fill="#090B04" opacity="1.000000" stroke="none" 
	d="
M188.125122,182.726929 
	C194.641830,181.149094 199.139709,184.524185 197.186539,189.357162 
	C196.412628,191.272156 193.964569,193.340408 191.988419,193.687943 
	C190.280746,193.988251 187.534561,192.416061 186.364609,190.841537 
	C184.370239,188.157547 185.237122,185.216370 188.125122,182.726929 
z"/>
<path fill="#080B04" opacity="1.000000" stroke="none" 
	d="
M185.396729,80.845886 
	C187.062469,78.355103 188.426178,75.563400 190.646652,74.381920 
	C191.839706,73.747108 195.254593,75.368904 196.292480,76.902580 
	C197.325485,78.429039 197.354202,81.482147 196.489349,83.190590 
	C195.733200,84.684341 192.753235,86.385445 191.415207,85.953239 
	C189.153122,85.222534 187.411667,82.880035 185.396729,80.845886 
z"/>
<path fill="#080B04" opacity="1.000000" stroke="none" 
	d="
M250.725555,131.183487 
	C251.707184,136.627106 249.967148,139.737961 245.971130,140.004959 
	C242.248428,140.253693 239.487335,138.404312 239.494186,134.722794 
	C239.498001,132.670578 241.048859,129.877075 242.773987,128.741821 
	C245.554565,126.911980 248.540176,127.954498 250.725555,131.183487 
z"/>
<path fill="#080B04" opacity="1.000000" stroke="none" 
	d="
M197.372162,132.579193 
	C197.822174,136.624527 196.308685,139.503860 192.627762,139.750549 
	C190.566650,139.888672 187.622025,138.616791 186.404785,136.987274 
	C184.239960,134.089218 185.108994,130.667206 188.375397,128.903641 
	C192.251846,126.810715 195.447021,128.030075 197.372162,132.579193 
z"/>
<path fill="#080B04" opacity="1.000000" stroke="none" 
	d="
M141.884796,245.905121 
	C138.691895,248.591934 135.458160,248.666275 133.296326,245.716766 
	C132.079987,244.057251 131.460800,240.560074 132.415070,239.073517 
	C133.539810,237.321381 136.711853,235.895294 138.898941,236.020966 
	C143.320847,236.275101 144.575134,240.631729 141.884796,245.905121 
z"/>
<path fill="#070A03" opacity="1.000000" stroke="none" 
	d="
M87.413742,75.444260 
	C90.453049,78.581169 90.863586,81.998840 87.767525,84.381638 
	C86.086731,85.675232 82.360367,86.120399 80.683319,85.098808 
	C79.017303,84.083923 77.853584,80.653046 78.089256,78.455345 
	C78.515564,74.480003 82.388367,73.356567 87.413742,75.444260 
z"/>
<path fill="#070803" opacity="1.000000" stroke="none" 
	d="
M82.334885,193.851120 
	C78.575203,192.325394 76.651161,189.663269 78.067696,186.273758 
	C78.851631,184.397934 81.533951,182.118973 83.306068,182.164017 
	C85.389801,182.217010 88.255760,184.139191 89.286896,186.055527 
	C91.334961,189.861832 88.215019,193.280228 82.334885,193.851120 
z"/>
<path fill="#070A03" opacity="1.000000" stroke="none" 
	d="
M86.866028,128.865295 
	C90.151123,131.641403 91.111229,134.940552 88.230591,137.679031 
	C86.677231,139.155716 82.899765,140.170837 81.340302,139.276459 
	C79.489548,138.215027 77.741394,134.681549 78.083626,132.564468 
	C78.807236,128.088196 82.397469,127.175369 86.866028,128.865295 
z"/>
<path fill="#070803" opacity="1.000000" stroke="none" 
	d="
M25.536625,138.376953 
	C22.659176,133.021591 24.084162,128.452301 28.713425,128.261551 
	C30.781160,128.176346 33.998375,129.570572 34.760937,131.198730 
	C35.630875,133.056137 35.101086,136.472504 33.824402,138.223007 
	C31.842964,140.939819 28.634449,140.685638 25.536625,138.376953 
z"/>
</svg>